<?xml version="1.0" encoding="UTF-8"?>
<svg xmlns="http://www.w3.org/2000/svg" xmlns:xlink="http://www.w3.org/1999/xlink" width="50px" height="50px" viewBox="0 0 50 14" version="1.1">
<defs>
<linearGradient id="linear0" gradientUnits="userSpaceOnUse" x1="26.648937" y1="20.603781" x2="135.665253" y2="114.397667" gradientTransform="matrix(0.0578745,0,0,0.0552193,-0.967078,-0.515764)">
<stop offset="0" style="stop-color:rgb(35.294118%,62.352941%,83.137255%);stop-opacity:1;"/>
<stop offset="1" style="stop-color:rgb(18.823529%,41.176471%,59.607843%);stop-opacity:1;"/>
</linearGradient>
<linearGradient id="linear1" gradientUnits="userSpaceOnUse" x1="150.961105" y1="192.351761" x2="112.031441" y2="137.272995" gradientTransform="matrix(0.0578745,0,0,0.0552193,-0.967078,-0.515764)">
<stop offset="0" style="stop-color:rgb(100%,83.137255%,23.137255%);stop-opacity:1;"/>
<stop offset="1" style="stop-color:rgb(100%,90.980392%,45.098039%);stop-opacity:1;"/>
</linearGradient>
<filter id="alpha" filterUnits="objectBoundingBox" x="0%" y="0%" width="100%" height="100%">
  <feColorMatrix type="matrix" in="SourceGraphic" values="0 0 0 0 1 0 0 0 0 1 0 0 0 0 1 0 0 0 1 0"/>
</filter>
<mask id="mask0">
  <g filter="url(#alpha)">
<rect x="0" y="0" width="50" height="14" style="fill:rgb(0%,0%,0%);fill-opacity:0.443137;stroke:none;"/>
  </g>
</mask>
<radialGradient id="radial0" gradientUnits="userSpaceOnUse" cx="61.518883" cy="132.285751" fx="61.518883" fy="132.285751" r="29.036913" gradientTransform="matrix(0,-0.0233277,0.108505,0,-8.035907,14.472398)">
<stop offset="0" style="stop-color:rgb(72.156863%,72.156863%,72.156863%);stop-opacity:0.498039;"/>
<stop offset="1" style="stop-color:rgb(49.803922%,49.803922%,49.803922%);stop-opacity:0;"/>
</radialGradient>
<clipPath id="clip1">
  <rect x="0" y="0" width="50" height="14"/>
</clipPath>
<g id="surface5" clip-path="url(#clip1)">
<path style=" stroke:none;fill-rule:nonzero;fill:url(#radial0);" d="M 10.015625 13.039062 C 10.015625 13.410156 8.359375 13.714844 6.316406 13.714844 C 4.277344 13.714844 2.621094 13.410156 2.621094 13.039062 C 2.621094 12.664062 4.277344 12.359375 6.316406 12.359375 C 8.359375 12.359375 10.015625 12.664062 10.015625 13.039062 "/>
</g>
</defs>
<g id="surface1">
<path style=" stroke:none;fill-rule:nonzero;fill:rgb(39.215687%,39.215687%,39.215687%);fill-opacity:1;" d="M 18.992188 6.019531 C 18.992188 4.605469 18.566406 3.878906 17.710938 3.839844 C 17.371094 3.824219 17.03125 3.875 16.714844 3.992188 C 16.460938 4.082031 16.285156 4.167969 16.195312 4.253906 L 16.195312 7.632812 C 16.742188 7.957031 17.226562 8.109375 17.648438 8.082031 C 18.542969 8.027344 18.992188 7.339844 18.992188 6.019531 M 20.046875 6.078125 C 20.046875 6.800781 19.867188 7.394531 19.507812 7.871094 C 19.109375 8.40625 18.554688 8.683594 17.847656 8.699219 C 17.3125 8.714844 16.761719 8.558594 16.195312 8.226562 L 16.195312 11.296875 L 15.277344 10.988281 L 15.277344 4.171875 C 15.429688 3.996094 15.621094 3.847656 15.855469 3.71875 C 16.402344 3.417969 17.066406 3.265625 17.84375 3.257812 L 17.859375 3.269531 C 18.570312 3.261719 19.121094 3.539062 19.507812 4.097656 C 19.867188 4.613281 20.046875 5.273438 20.046875 6.078125 M 25.648438 8.09375 C 25.648438 9.058594 25.546875 9.726562 25.339844 10.097656 C 25.136719 10.472656 24.746094 10.769531 24.167969 10.988281 C 23.699219 11.164062 23.191406 11.257812 22.648438 11.273438 L 22.496094 10.726562 C 23.050781 10.65625 23.441406 10.585938 23.664062 10.515625 C 24.109375 10.371094 24.414062 10.15625 24.582031 9.863281 C 24.714844 9.625 24.78125 9.171875 24.78125 8.5 L 24.78125 8.273438 C 24.15625 8.542969 23.5 8.675781 22.8125 8.675781 C 22.359375 8.675781 21.960938 8.542969 21.621094 8.273438 C 21.234375 7.980469 21.042969 7.609375 21.042969 7.160156 L 21.042969 3.554688 L 21.957031 3.257812 L 21.957031 6.886719 C 21.957031 7.273438 22.089844 7.570312 22.355469 7.78125 C 22.621094 7.992188 22.964844 8.089844 23.382812 8.082031 C 23.804688 8.074219 24.253906 7.921875 24.730469 7.621094 L 24.730469 3.386719 L 25.648438 3.386719 Z M 29.226562 8.652344 C 29.125 8.660156 29.027344 8.664062 28.925781 8.664062 C 28.40625 8.664062 28.003906 8.546875 27.714844 8.3125 C 27.425781 8.082031 27.28125 7.757812 27.28125 7.34375 L 27.28125 3.933594 L 26.652344 3.933594 L 26.652344 3.386719 L 27.28125 3.386719 L 27.28125 1.941406 L 28.195312 1.632812 L 28.195312 3.386719 L 29.226562 3.386719 L 29.226562 3.933594 L 28.195312 3.933594 L 28.195312 7.320312 C 28.195312 7.644531 28.289062 7.875 28.472656 8.011719 C 28.632812 8.121094 28.882812 8.183594 29.226562 8.203125 Z M 34.777344 8.582031 L 33.859375 8.582031 L 33.859375 5.238281 C 33.859375 4.898438 33.773438 4.605469 33.609375 4.359375 C 33.414062 4.082031 33.144531 3.945312 32.800781 3.945312 C 32.378906 3.945312 31.855469 4.15625 31.222656 4.574219 L 31.222656 8.582031 L 30.308594 8.582031 L 30.308594 0.589844 L 31.222656 0.316406 L 31.222656 3.957031 C 31.808594 3.554688 32.449219 3.351562 33.144531 3.351562 C 33.628906 3.351562 34.023438 3.507812 34.324219 3.816406 C 34.625 4.121094 34.777344 4.507812 34.777344 4.964844 Z M 39.648438 5.882812 C 39.648438 5.339844 39.539062 4.890625 39.320312 4.535156 C 39.0625 4.101562 38.660156 3.875 38.117188 3.851562 C 37.113281 3.90625 36.609375 4.585938 36.609375 5.890625 C 36.609375 6.488281 36.714844 6.988281 36.925781 7.386719 C 37.195312 7.898438 37.597656 8.152344 38.132812 8.144531 C 39.144531 8.136719 39.648438 7.382812 39.648438 5.882812 M 40.652344 5.890625 C 40.652344 6.664062 40.441406 7.308594 40.023438 7.824219 C 39.5625 8.398438 38.925781 8.6875 38.117188 8.6875 C 37.3125 8.6875 36.683594 8.398438 36.234375 7.824219 C 35.824219 7.308594 35.617188 6.664062 35.617188 5.890625 C 35.617188 5.164062 35.839844 4.550781 36.285156 4.050781 C 36.75 3.523438 37.367188 3.257812 38.128906 3.257812 C 38.890625 3.257812 39.507812 3.523438 39.988281 4.050781 C 40.429688 4.550781 40.652344 5.164062 40.652344 5.890625 M 45.90625 8.582031 L 44.988281 8.582031 L 44.988281 5.046875 C 44.988281 4.660156 44.867188 4.359375 44.621094 4.140625 C 44.371094 3.921875 44.042969 3.820312 43.632812 3.828125 C 43.199219 3.835938 42.785156 3.96875 42.390625 4.230469 L 42.390625 8.582031 L 41.472656 8.582031 L 41.472656 4.121094 C 42.003906 3.761719 42.488281 3.523438 42.929688 3.414062 C 43.347656 3.308594 43.71875 3.257812 44.035156 3.257812 C 44.253906 3.257812 44.457031 3.277344 44.652344 3.316406 C 45.011719 3.394531 45.304688 3.542969 45.527344 3.757812 C 45.78125 3.992188 45.90625 4.277344 45.90625 4.609375 Z M 45.90625 8.582031 "/>
<path style=" stroke:none;fill-rule:nonzero;fill:url(#linear0);" d="M 6.226562 0.621094 C 5.753906 0.625 5.304688 0.660156 4.90625 0.726562 C 3.738281 0.921875 3.527344 1.332031 3.527344 2.082031 L 3.527344 3.078125 L 6.285156 3.078125 L 6.285156 3.40625 L 2.492188 3.40625 C 1.691406 3.40625 0.988281 3.863281 0.769531 4.730469 C 0.515625 5.722656 0.503906 6.34375 0.769531 7.378906 C 0.964844 8.152344 1.433594 8.699219 2.234375 8.699219 L 3.183594 8.699219 L 3.183594 7.507812 C 3.183594 6.648438 3.972656 5.890625 4.90625 5.890625 L 7.664062 5.890625 C 8.429688 5.890625 9.042969 5.292969 9.042969 4.566406 L 9.042969 2.082031 C 9.042969 1.378906 8.410156 0.847656 7.664062 0.726562 C 7.1875 0.652344 6.695312 0.621094 6.226562 0.621094 M 4.734375 1.421875 C 5.019531 1.421875 5.25 1.644531 5.25 1.917969 C 5.25 2.191406 5.019531 2.414062 4.734375 2.414062 C 4.449219 2.414062 4.214844 2.191406 4.214844 1.917969 C 4.214844 1.644531 4.449219 1.421875 4.734375 1.421875 "/>
<path style=" stroke:none;fill-rule:nonzero;fill:url(#linear1);" d="M 9.386719 3.40625 L 9.386719 4.566406 C 9.386719 5.464844 8.582031 6.21875 7.664062 6.21875 L 4.90625 6.21875 C 4.152344 6.21875 3.527344 6.828125 3.527344 7.542969 L 3.527344 10.023438 C 3.527344 10.730469 4.179688 11.148438 4.90625 11.351562 C 5.78125 11.59375 6.617188 11.636719 7.664062 11.351562 C 8.355469 11.160156 9.042969 10.777344 9.042969 10.023438 L 9.042969 9.03125 L 6.285156 9.03125 L 6.285156 8.699219 L 10.421875 8.699219 C 11.222656 8.699219 11.519531 8.171875 11.800781 7.378906 C 12.089844 6.5625 12.074219 5.777344 11.800781 4.730469 C 11.601562 3.976562 11.222656 3.40625 10.421875 3.40625 Z M 7.835938 9.695312 C 8.121094 9.695312 8.355469 9.914062 8.355469 10.1875 C 8.355469 10.464844 8.121094 10.6875 7.835938 10.6875 C 7.550781 10.6875 7.320312 10.464844 7.320312 10.1875 C 7.320312 9.914062 7.550781 9.695312 7.835938 9.695312 "/>
<path style=" stroke:none;fill-rule:nonzero;fill:rgb(39.215687%,39.215687%,39.215687%);fill-opacity:1;" d="M 47.691406 2.617188 L 47.851562 2.617188 L 47.851562 1.664062 L 48.230469 1.664062 L 48.230469 1.550781 L 47.308594 1.550781 L 47.308594 1.664062 L 47.691406 1.664062 Z M 48.375 2.617188 L 48.511719 2.617188 L 48.511719 1.746094 L 48.808594 2.617188 L 48.960938 2.617188 L 49.273438 1.75 L 49.273438 2.617188 L 49.421875 2.617188 L 49.421875 1.550781 L 49.226562 1.550781 L 48.886719 2.464844 L 48.597656 1.550781 L 48.375 1.550781 Z M 48.375 2.617188 "/>
<use xlink:href="#surface5" mask="url(#mask0)"/>
</g>
</svg>
