<?xml version="1.0" encoding="UTF-8"?>
<svg xmlns="http://www.w3.org/2000/svg" xmlns:xlink="http://www.w3.org/1999/xlink" width="50px" height="50px" viewBox="0 0 50 30" version="1.1">
<defs>
<clipPath id="clip1">
  <path d="M 0 0 L 50 0 L 50 29.453125 L 0 29.453125 Z M 0 0 "/>
</clipPath>
</defs>
<g id="surface1">
<g clip-path="url(#clip1)" clip-rule="nonzero">
<path style=" stroke:none;fill-rule:evenodd;fill:rgb(21.960784%,74.117649%,97.254902%);fill-opacity:1;" d="M 25 0 C 18.332031 0 14.167969 3.273438 12.5 9.816406 C 15 6.546875 17.917969 5.316406 21.25 6.136719 C 23.152344 6.601562 24.511719 7.957031 26.015625 9.457031 C 28.464844 11.898438 31.304688 14.726562 37.5 14.726562 C 44.167969 14.726562 48.332031 11.453125 50 4.910156 C 47.5 8.183594 44.582031 9.410156 41.25 8.589844 C 39.347656 8.125 37.988281 6.769531 36.484375 5.269531 C 34.035156 2.828125 31.195312 0 25 0 M 12.5 14.726562 C 5.832031 14.726562 1.667969 18 0 24.546875 C 2.5 21.273438 5.417969 20.046875 8.75 20.863281 C 10.652344 21.332031 12.011719 22.683594 13.515625 24.183594 C 15.964844 26.628906 18.804688 29.453125 25 29.453125 C 31.667969 29.453125 35.832031 26.183594 37.5 19.636719 C 35 22.910156 32.082031 24.136719 28.75 23.316406 C 26.847656 22.851562 25.488281 21.496094 23.984375 19.996094 C 21.535156 17.554688 18.695312 14.726562 12.5 14.726562 "/>
</g>
</g>
</svg>
